<?xml version="1.0" standalone="no"?>
<!DOCTYPE svg PUBLIC "-//W3C//DTD SVG 20010904//EN"
 "http://www.w3.org/TR/2001/REC-SVG-20010904/DTD/svg10.dtd">
<svg version="1.0" xmlns="http://www.w3.org/2000/svg"
 width="274.000000pt" height="83.000000pt" viewBox="0 0 274.000000 83.000000"
 preserveAspectRatio="xMidYMid meet">

<g transform="translate(0.000000,83.000000) scale(0.100000,-0.100000)"
fill="#000000" stroke="none">
<path d="M0 415 l0 -415 1370 0 1370 0 0 415 0 415 -1370 0 -1370 0 0 -415z
m436 296 c-9 -17 -25 -75 -36 -128 -12 -54 -30 -117 -41 -140 -24 -50 -93
-158 -106 -166 -5 -3 4 45 19 106 19 75 42 134 67 177 21 36 53 94 70 129 18
34 35 61 37 58 3 -3 -2 -19 -10 -36z m750 -268 c-9 -9 -150 -68 -238 -99 -78
-28 -228 -42 -368 -33 -82 5 -101 3 -134 -14 -51 -25 -150 -89 -155 -101 -11
-25 -60 -69 -81 -71 -14 -2 -32 -6 -41 -10 -9 -3 -21 1 -28 9 -11 13 -6 17 28
26 58 15 99 55 187 181 42 60 79 109 81 109 5 0 -3 -15 -29 -52 -22 -32 -23
-42 -2 -34 9 4 74 18 143 32 109 23 154 27 341 29 169 1 224 5 255 18 47 18
51 19 41 10z m23 -112 c25 -23 31 -37 31 -70 0 -22 -5 -51 -11 -65 -15 -33
-66 -58 -109 -54 l-35 3 -3 108 -3 107 50 0 c40 0 54 -5 80 -29z m791 19 c0
-5 -25 -10 -55 -10 l-55 0 0 -40 0 -40 53 -2 52 -2 -52 -3 -53 -4 0 -49 c0
-27 -4 -52 -10 -55 -6 -4 -10 33 -10 104 l0 111 65 0 c37 0 65 -4 65 -10z
m-243 -152 c-2 -29 -3 -6 -3 52 0 58 1 81 3 53 2 -29 2 -77 0 -105z m-187 122
c0 -12 7 -20 18 -21 16 -1 16 -2 0 -6 -15 -4 -18 -16 -18 -68 0 -42 4 -65 13
-68 6 -2 8 -8 4 -13 -18 -19 -38 30 -36 84 2 38 -2 56 -12 63 -12 7 -11 9 3 9
11 0 15 6 11 20 -3 11 0 20 6 20 6 0 11 -9 11 -20z m720 1 c0 -11 6 -22 13
-25 10 -5 10 -7 0 -12 -8 -4 -13 -27 -13 -65 0 -49 3 -59 17 -59 13 0 14 -3 5
-12 -23 -23 -42 10 -42 72 0 37 -5 60 -12 64 -10 5 -10 7 0 12 6 3 12 14 12
25 0 10 5 19 10 19 6 0 10 -9 10 -19z m-921 -47 c35 -45 28 -54 -39 -54 -51 0
-60 -3 -60 -18 0 -44 67 -59 94 -20 9 12 18 19 21 16 3 -3 -4 -17 -16 -31 -42
-55 -114 -22 -114 53 0 75 72 108 114 54z m135 10 c12 -11 16 -33 14 -77 -1
-51 -2 -54 -5 -17 -5 70 -11 88 -33 95 -10 3 -28 1 -40 -5 -17 -9 -20 -21 -20
-70 0 -35 -4 -60 -10 -60 -7 0 -10 27 -9 71 1 53 5 69 15 65 7 -3 16 -1 19 4
10 15 52 12 69 -6z m204 4 c7 -7 12 -38 12 -69 0 -37 4 -59 13 -62 6 -2 9 -8
5 -12 -4 -4 -13 -3 -21 3 -8 7 -18 7 -27 2 -40 -26 -98 8 -85 49 6 20 22 27
75 33 37 4 40 45 4 54 -22 6 -31 2 -46 -16 -23 -28 -33 -22 -12 8 17 24 62 30
82 10z m392 2 c22 -12 42 -64 33 -88 -10 -29 -46 -62 -67 -62 -34 0 -66 39
-66 82 0 62 49 95 100 68z m90 0 c20 13 30 12 30 0 0 -5 -7 -10 -15 -10 -22 0
-35 -33 -35 -90 0 -33 -4 -49 -10 -45 -7 4 -9 34 -6 78 5 87 5 85 14 70 5 -8
13 -9 22 -3z m262 -7 c10 -9 18 -27 18 -40 0 -21 -4 -23 -55 -23 -46 0 -55 -3
-55 -18 0 -45 66 -58 93 -19 9 12 16 16 16 10 1 -21 -37 -53 -63 -53 -31 0
-66 43 -66 80 0 63 69 102 112 63z m136 5 c7 -7 12 -18 12 -25 0 -8 -8 -5 -21
8 -18 18 -50 19 -68 3 -12 -11 14 -35 48 -44 47 -12 62 -41 35 -71 -31 -35
-104 -14 -104 30 0 12 5 10 18 -7 24 -30 77 -28 77 3 0 14 -11 24 -40 33 -55
18 -67 38 -39 66 18 19 65 21 82 4z"/>
<path d="M346 290 l-28 -51 71 38 c74 40 86 53 49 53 -13 0 -32 3 -44 6 -16 4
-25 -4 -48 -46z"/>
<path d="M1090 250 l0 -90 44 0 c60 0 87 23 93 80 4 36 1 51 -17 73 -18 23
-29 27 -71 27 l-49 0 0 -90z"/>
<path d="M1287 272 c-29 -32 -21 -42 38 -42 47 0 54 2 48 18 -14 42 -59 54
-86 24z"/>
<path d="M1665 220 c-32 -4 -41 -10 -43 -27 -6 -41 69 -49 84 -9 12 31 0 41
-41 36z"/>
<path d="M2043 279 c-30 -11 -40 -62 -18 -95 35 -54 112 -1 90 62 -12 31 -41
45 -72 33z"/>
<path d="M2382 274 c-39 -27 -28 -44 28 -44 54 0 61 9 30 40 -24 24 -29 24
-58 4z"/>
</g>
</svg>
